<svg width="512" height="512" viewBox="0 0 512 512" fill="none" xmlns="http://www.w3.org/2000/svg">
<rect width="512" height="512" rx="95" fill="#0568FD"/>
<path d="M270.925 329.616C283.613 329.616 294.533 327.536 303.685 323.376C312.837 319.008 322.405 312.144 332.389 302.784L356.101 327.12C333.013 352.704 304.933 365.496 271.861 365.496C238.997 365.496 211.645 354.888 189.805 333.672C168.173 312.456 157.357 285.624 157.357 253.176C157.357 220.728 168.381 193.688 190.429 172.056C212.685 150.424 240.661 139.608 274.357 139.608C308.261 139.608 336.549 152.088 359.221 177.048L335.821 202.632C325.421 192.648 315.541 185.68 306.181 181.728C297.029 177.776 286.213 175.8 273.733 175.8C251.685 175.8 233.173 182.976 218.197 197.328C203.221 211.472 195.733 229.672 195.733 251.928C195.733 273.976 203.117 292.488 217.885 307.464C232.861 322.232 250.541 329.616 270.925 329.616Z" fill="white"/>
<path d="M271.552 294.596C278.547 294.596 284.567 293.449 289.612 291.156C294.657 288.748 299.932 284.964 305.436 279.804L318.508 293.22C305.78 307.324 290.3 314.376 272.068 314.376C253.951 314.376 238.872 308.528 226.832 296.832C214.907 285.136 208.944 270.344 208.944 252.456C208.944 234.568 215.021 219.661 227.176 207.736C239.445 195.811 254.868 189.848 273.444 189.848C292.135 189.848 307.729 196.728 320.228 210.488L307.328 224.592C301.595 219.088 296.148 215.247 290.988 213.068C285.943 210.889 279.98 209.8 273.1 209.8C260.945 209.8 250.74 213.756 242.484 221.668C234.228 229.465 230.1 239.499 230.1 251.768C230.1 263.923 234.171 274.128 242.312 282.384C250.568 290.525 260.315 294.596 271.552 294.596Z" fill="white"/>
</svg>
